<svg xmlns="http://www.w3.org/2000/svg" xmlns:xlink="http://www.w3.org/1999/xlink" width="50" zoomAndPan="magnify" viewBox="0 0 37.5 37.499999" height="50" preserveAspectRatio="xMidYMid meet" version="1.0"><defs><clipPath id="2ba560d7c5"><path d="M 0 4.234375 L 37.007812 4.234375 L 37.007812 14.9375 L 0 14.9375 Z M 0 4.234375 " clip-rule="nonzero"/></clipPath><clipPath id="066a045128"><path d="M -0.445312 8.511719 C 0.519531 5.996094 1.035156 5.328125 1.703125 5.03125 C 2.367188 4.664062 3.480469 4.589844 4.292969 4.664062 C 5.03125 4.8125 5.773438 4.957031 6.363281 5.402344 C 6.957031 5.921875 7.105469 7.328125 7.625 7.699219 C 7.992188 7.917969 8.511719 7.917969 8.808594 7.917969 C 9.03125 7.917969 9.105469 7.992188 9.324219 7.917969 C 9.769531 7.917969 11.027344 7.476562 11.324219 7.476562 C 11.472656 7.476562 11.472656 7.550781 11.546875 7.476562 C 11.695312 7.328125 11.472656 6.292969 11.84375 5.773438 C 12.210938 5.179688 13.765625 4.441406 14.136719 4.441406 C 14.285156 4.441406 14.285156 4.664062 14.433594 4.664062 C 14.582031 4.664062 14.800781 4.441406 15.097656 4.367188 C 15.542969 4.21875 16.355469 4.292969 17.023438 4.292969 C 17.6875 4.292969 18.355469 4.292969 19.019531 4.292969 C 19.6875 4.292969 20.355469 4.292969 21.019531 4.292969 C 21.761719 4.367188 22.574219 4.441406 23.238281 4.664062 C 23.90625 4.886719 24.792969 5.03125 25.164062 5.550781 C 25.535156 6.144531 24.941406 7.625 25.386719 8.140625 C 25.757812 8.511719 26.71875 8.511719 27.3125 8.585938 C 27.828125 8.585938 28.273438 8.363281 28.71875 8.289062 C 29.160156 8.289062 29.976562 8.289062 29.976562 8.289062 C 29.976562 8.289062 30.125 8.363281 30.199219 8.289062 C 30.34375 8.140625 29.828125 6.734375 30.125 6.144531 C 30.417969 5.476562 31.53125 4.8125 32.195312 4.664062 C 32.789062 4.589844 33.453125 4.957031 34.046875 5.179688 C 34.710938 5.402344 35.453125 5.402344 35.96875 5.847656 C 36.5625 6.363281 37.007812 7.550781 37.082031 8.363281 C 37.15625 9.03125 36.859375 9.621094 36.710938 10.289062 C 36.5625 10.878906 36.265625 11.695312 36.042969 12.0625 C 35.96875 12.136719 35.824219 12.136719 35.75 12.285156 C 35.675781 12.507812 36.042969 13.101562 35.894531 13.394531 C 35.527344 13.988281 33.527344 14.949219 32.9375 14.875 C 32.566406 14.800781 32.417969 14.136719 32.195312 14.0625 C 31.972656 14.0625 31.824219 14.210938 31.605469 14.210938 C 31.160156 14.285156 30.34375 14.210938 29.753906 14.210938 C 29.160156 14.136719 28.570312 14.0625 27.902344 13.988281 C 27.238281 13.914062 26.421875 13.914062 25.757812 13.839844 C 25.089844 13.839844 23.980469 13.839844 23.757812 13.839844 C 23.757812 13.839844 23.757812 13.839844 23.683594 13.839844 C 23.609375 13.839844 23.460938 13.914062 23.238281 13.988281 C 22.5 14.0625 20.28125 14.507812 19.09375 14.582031 C 18.207031 14.65625 17.46875 14.65625 16.726562 14.65625 C 15.988281 14.582031 15.320312 14.507812 14.65625 14.433594 C 13.988281 14.359375 13.324219 14.359375 12.65625 14.285156 C 11.988281 14.210938 11.324219 13.988281 10.65625 13.988281 C 10.066406 13.988281 9.398438 14.0625 8.734375 14.0625 C 8.066406 14.0625 7.105469 14.210938 6.585938 14.0625 C 6.21875 13.988281 5.996094 13.691406 5.773438 13.617188 C 5.550781 13.617188 5.402344 13.765625 5.105469 13.765625 C 4.589844 13.839844 3.480469 13.765625 2.886719 13.765625 C 2.515625 13.691406 2.21875 13.765625 1.925781 13.691406 C 1.777344 13.691406 1.628906 13.691406 1.480469 13.691406 C 1.332031 13.617188 1.183594 13.542969 1.035156 13.46875 C 0.960938 13.46875 0.8125 13.324219 0.667969 13.25 C 0.59375 13.175781 0.445312 13.027344 0.371094 12.878906 C 0.296875 12.804688 0.222656 12.65625 0.148438 12.507812 C 0.148438 12.359375 0.0742188 12.210938 0.0742188 12.0625 C 0.0742188 11.917969 0.0742188 11.769531 0.0742188 11.621094 C 0.0742188 11.472656 0.148438 11.25 0.148438 11.175781 C 0.222656 11.027344 0.371094 10.953125 0.371094 10.878906 C 0.296875 10.730469 0.148438 10.804688 0.0742188 10.65625 C -0.148438 10.363281 -0.445312 8.511719 -0.445312 8.511719 " clip-rule="nonzero"/></clipPath><clipPath id="5924edbe46"><path d="M 0 0 L 37.007812 0 L 37.007812 37.007812 L 0 37.007812 Z M 0 0 " clip-rule="nonzero"/></clipPath></defs><g clip-path="url(#2ba560d7c5)"><g clip-path="url(#066a045128)"><path fill="#c60006" d="M -3.40625 1.332031 L 40.113281 1.332031 L 40.113281 17.835938 L -3.40625 17.835938 Z M -3.40625 1.332031 " fill-opacity="1" fill-rule="nonzero"/></g></g><g clip-path="url(#5924edbe46)"><path fill="#ffffff" d="M 33.960938 4.304688 L 30.5 4.304688 L 30.5 2.417969 C 30.5 2.097656 30.4375 1.789062 30.3125 1.496094 C 30.191406 1.199219 30.015625 0.9375 29.789062 0.710938 C 29.5625 0.484375 29.300781 0.308594 29.007812 0.183594 C 28.710938 0.0625 28.402344 0 28.082031 0 L 26.816406 0 C 26.5 0 26.191406 0.0625 25.894531 0.1875 C 25.601562 0.3125 25.339844 0.484375 25.113281 0.710938 C 24.886719 0.9375 24.714844 1.199219 24.59375 1.496094 C 24.46875 1.792969 24.410156 2.097656 24.410156 2.417969 L 24.410156 4.304688 L 12.597656 4.304688 L 12.597656 2.417969 C 12.597656 2.097656 12.535156 1.792969 12.414062 1.496094 C 12.292969 1.199219 12.117188 0.9375 11.890625 0.710938 C 11.667969 0.484375 11.40625 0.3125 11.109375 0.1875 C 10.816406 0.0625 10.507812 0 10.1875 0 L 8.925781 0 C 8.605469 0 8.296875 0.0625 8 0.183594 C 7.703125 0.308594 7.441406 0.484375 7.214844 0.710938 C 6.988281 0.9375 6.816406 1.199219 6.691406 1.496094 C 6.570312 1.789062 6.507812 2.097656 6.507812 2.417969 L 6.507812 4.304688 L 3.046875 4.304688 C 2.644531 4.304688 2.253906 4.378906 1.882812 4.535156 C 1.507812 4.691406 1.179688 4.910156 0.894531 5.195312 C 0.605469 5.480469 0.386719 5.8125 0.234375 6.183594 C 0.078125 6.558594 0 6.945312 0 7.351562 L 0 33.960938 C 0 34.363281 0.078125 34.753906 0.234375 35.125 C 0.386719 35.5 0.605469 35.828125 0.894531 36.113281 C 1.179688 36.398438 1.507812 36.621094 1.882812 36.773438 C 2.253906 36.929688 2.644531 37.007812 3.046875 37.007812 L 33.953125 37.007812 C 34.355469 37.007812 34.746094 36.929688 35.121094 36.777344 C 35.492188 36.621094 35.824219 36.402344 36.109375 36.117188 C 36.398438 35.832031 36.617188 35.5 36.773438 35.128906 C 36.929688 34.753906 37.007812 34.363281 37.007812 33.960938 L 37.007812 7.351562 C 37.007812 6.945312 36.929688 6.558594 36.773438 6.183594 C 36.621094 5.8125 36.398438 5.480469 36.113281 5.195312 C 35.828125 4.910156 35.5 4.691406 35.125 4.535156 C 34.753906 4.378906 34.363281 4.304688 33.960938 4.304688 Z M 25.984375 2.417969 C 25.984375 2.1875 26.066406 1.988281 26.226562 1.824219 C 26.390625 1.660156 26.585938 1.578125 26.816406 1.574219 L 28.082031 1.574219 C 28.316406 1.574219 28.511719 1.65625 28.675781 1.824219 C 28.84375 1.988281 28.925781 2.1875 28.925781 2.417969 L 28.925781 7.296875 L 25.984375 7.296875 Z M 8.089844 2.417969 C 8.089844 2.1875 8.171875 1.988281 8.335938 1.824219 C 8.496094 1.660156 8.695312 1.578125 8.925781 1.574219 L 10.1875 1.574219 C 10.417969 1.578125 10.617188 1.660156 10.78125 1.824219 C 10.941406 1.988281 11.023438 2.1875 11.023438 2.417969 L 11.023438 7.296875 L 8.070312 7.296875 Z M 3.046875 5.878906 L 6.507812 5.878906 L 6.507812 8.871094 L 12.597656 8.871094 L 12.597656 5.878906 L 24.410156 5.878906 L 24.410156 8.871094 L 30.511719 8.871094 L 30.511719 5.878906 L 33.972656 5.878906 C 34.164062 5.878906 34.351562 5.917969 34.53125 5.992188 C 34.710938 6.070312 34.867188 6.175781 35.003906 6.3125 C 35.140625 6.453125 35.246094 6.609375 35.320312 6.789062 C 35.394531 6.96875 35.429688 7.15625 35.433594 7.351562 L 35.433594 13.484375 L 1.574219 13.484375 L 1.574219 7.351562 C 1.574219 7.15625 1.613281 6.96875 1.6875 6.785156 C 1.761719 6.605469 1.867188 6.449219 2.007812 6.308594 C 2.144531 6.171875 2.304688 6.066406 2.484375 5.992188 C 2.664062 5.914062 2.851562 5.878906 3.046875 5.878906 Z M 33.960938 35.433594 L 3.054688 35.433594 C 2.859375 35.433594 2.671875 35.394531 2.488281 35.320312 C 2.308594 35.246094 2.148438 35.140625 2.007812 35.003906 C 1.871094 34.863281 1.761719 34.707031 1.6875 34.523438 C 1.613281 34.34375 1.574219 34.15625 1.574219 33.960938 L 1.574219 15.0625 L 35.433594 15.0625 L 35.433594 33.960938 C 35.429688 34.15625 35.394531 34.34375 35.320312 34.523438 C 35.246094 34.703125 35.136719 34.863281 35 35 C 34.863281 35.136719 34.703125 35.246094 34.523438 35.320312 C 34.34375 35.394531 34.15625 35.429688 33.960938 35.433594 Z M 33.960938 35.433594 " fill-opacity="1" fill-rule="nonzero"/></g></svg>