<svg xmlns="http://www.w3.org/2000/svg" xmlns:xlink="http://www.w3.org/1999/xlink" width="50" zoomAndPan="magnify" viewBox="0 0 37.5 37.499999" height="50" preserveAspectRatio="xMidYMid meet" version="1.0"><defs><clipPath id="68dd9dfad1"><path d="M 1.03125 14.621094 L 12.867188 14.621094 L 12.867188 26.191406 L 1.03125 26.191406 Z M 1.03125 14.621094 " clip-rule="nonzero"/></clipPath><clipPath id="fe5e4536f6"><path d="M 3.257812 18.503906 C 9.398438 15.617188 11.546875 16.28125 12.285156 17.394531 C 13.101562 18.503906 12.953125 20.945312 12.433594 22.277344 C 11.917969 23.460938 10.65625 24.574219 9.546875 25.164062 C 8.4375 25.832031 7.105469 26.273438 5.847656 26.125 C 4.441406 25.90625 2.21875 24.71875 1.554688 23.535156 C 0.886719 22.425781 0.960938 20.796875 1.332031 19.613281 C 1.851562 18.132812 3.40625 16.28125 4.738281 15.46875 C 5.847656 14.875 7.476562 14.582031 8.4375 14.875 C 9.324219 15.023438 10.066406 15.691406 10.511719 16.429688 C 11.027344 17.097656 11.25 18.058594 11.25 18.875 C 11.175781 19.6875 10.804688 20.648438 10.289062 21.316406 C 9.769531 21.90625 8.957031 22.5 8.140625 22.648438 C 7.105469 22.796875 5.253906 22.425781 4.441406 21.6875 C 3.625 20.871094 3.183594 19.09375 3.257812 18.058594 C 3.257812 17.246094 3.847656 16.355469 4.441406 15.765625 C 5.03125 15.246094 5.847656 14.730469 6.734375 14.65625 C 7.769531 14.65625 9.546875 15.171875 10.289062 16.0625 C 11.027344 16.875 11.324219 18.726562 11.101562 19.761719 C 10.953125 20.574219 10.214844 21.90625 9.695312 21.90625 C 8.882812 21.832031 7.625 17.171875 6.882812 17.246094 C 6.292969 17.320312 5.253906 20.132812 5.699219 21.167969 C 6.070312 22.203125 9.175781 22.574219 9.175781 23.3125 C 9.25 23.832031 7.476562 24.71875 6.660156 24.941406 C 6.070312 25.164062 5.476562 25.164062 4.886719 24.941406 C 4.144531 24.71875 3.109375 24.128906 2.664062 23.460938 C 2.144531 22.796875 1.925781 21.761719 2 20.871094 C 2.074219 20.058594 3.257812 18.503906 3.257812 18.503906 " clip-rule="nonzero"/></clipPath><clipPath id="cbf3fd3208"><path d="M 2 4.511719 L 12 4.511719 L 12 14 L 2 14 Z M 2 4.511719 " clip-rule="nonzero"/></clipPath><clipPath id="144882bade"><path d="M 25 4.511719 L 35 4.511719 L 35 14 L 25 14 Z M 25 4.511719 " clip-rule="nonzero"/></clipPath><clipPath id="794da67a97"><path d="M 0 14 L 37 14 L 37 32.636719 L 0 32.636719 Z M 0 14 " clip-rule="nonzero"/></clipPath><clipPath id="f9b293e48e"><path d="M 12 4.511719 L 25 4.511719 L 25 17 L 12 17 Z M 12 4.511719 " clip-rule="nonzero"/></clipPath></defs><g clip-path="url(#68dd9dfad1)"><g clip-path="url(#fe5e4536f6)"><path fill="#c60006" d="M -1.628906 11.695312 L 15.394531 11.695312 L 15.394531 29.117188 L -1.628906 29.117188 Z M -1.628906 11.695312 " fill-opacity="1" fill-rule="nonzero"/></g></g><g clip-path="url(#cbf3fd3208)"><path fill="#ffffff" d="M 7.261719 13.480469 C 9.734375 13.480469 11.746094 11.46875 11.746094 8.996094 C 11.746094 6.523438 9.734375 4.511719 7.261719 4.511719 C 4.789062 4.511719 2.777344 6.523438 2.777344 8.996094 C 2.777344 11.46875 4.789062 13.480469 7.261719 13.480469 Z M 7.261719 5.953125 C 8.9375 5.953125 10.304688 7.316406 10.304688 8.996094 C 10.304688 10.671875 8.9375 12.039062 7.261719 12.039062 C 5.582031 12.039062 4.21875 10.671875 4.21875 8.996094 C 4.21875 7.316406 5.582031 5.953125 7.261719 5.953125 Z M 7.261719 5.953125 " fill-opacity="1" fill-rule="nonzero"/></g><g clip-path="url(#144882bade)"><path fill="#ffffff" d="M 29.746094 13.480469 C 32.21875 13.480469 34.230469 11.46875 34.230469 8.996094 C 34.230469 6.523438 32.21875 4.511719 29.746094 4.511719 C 27.273438 4.511719 25.261719 6.523438 25.261719 8.996094 C 25.261719 11.46875 27.273438 13.480469 29.746094 13.480469 Z M 29.746094 5.953125 C 31.421875 5.953125 32.789062 7.316406 32.789062 8.996094 C 32.789062 10.671875 31.421875 12.039062 29.746094 12.039062 C 28.066406 12.039062 26.703125 10.671875 26.703125 8.996094 C 26.703125 7.316406 28.066406 5.953125 29.746094 5.953125 Z M 29.746094 5.953125 " fill-opacity="1" fill-rule="nonzero"/></g><g clip-path="url(#794da67a97)"><path fill="#ffffff" d="M 36.792969 21.597656 L 36.5625 20.210938 C 36.003906 16.867188 33.136719 14.4375 29.746094 14.4375 C 26.808594 14.4375 24.230469 16.296875 23.253906 18.988281 C 21.84375 18.085938 20.191406 17.59375 18.503906 17.59375 C 16.8125 17.59375 15.164062 18.085938 13.753906 18.988281 C 12.777344 16.296875 10.199219 14.4375 7.261719 14.4375 C 3.867188 14.4375 1 16.867188 0.445312 20.210938 L 0.214844 21.597656 C 0.0234375 22.746094 0.34375 23.910156 1.09375 24.796875 C 1.847656 25.683594 2.945312 26.191406 4.105469 26.191406 L 9.617188 26.191406 L 9.523438 26.757812 C 9.285156 28.1875 9.6875 29.644531 10.625 30.753906 C 11.5625 31.859375 12.933594 32.496094 14.386719 32.496094 L 22.621094 32.496094 C 24.074219 32.496094 25.445312 31.859375 26.382812 30.753906 C 27.320312 29.644531 27.722656 28.1875 27.484375 26.757812 L 27.390625 26.191406 L 32.902344 26.191406 C 34.0625 26.191406 35.160156 25.683594 35.910156 24.796875 C 36.664062 23.910156 36.984375 22.746094 36.792969 21.597656 Z M 2.195312 23.867188 C 1.71875 23.300781 1.511719 22.5625 1.632812 21.835938 L 1.863281 20.449219 C 2.304688 17.800781 4.574219 15.878906 7.261719 15.878906 C 9.746094 15.878906 11.902344 17.558594 12.539062 19.925781 C 11.15625 21.203125 10.210938 22.898438 9.859375 24.75 L 4.105469 24.75 C 3.367188 24.75 2.671875 24.429688 2.195312 23.867188 Z M 25.28125 29.820312 C 24.617188 30.605469 23.648438 31.054688 22.621094 31.054688 L 14.386719 31.054688 C 13.359375 31.054688 12.386719 30.605469 11.722656 29.820312 C 11.058594 29.039062 10.777344 28.007812 10.945312 26.992188 L 11.246094 25.1875 C 11.53125 23.46875 12.417969 21.90625 13.746094 20.78125 C 15.074219 19.65625 16.761719 19.035156 18.503906 19.035156 C 20.242188 19.035156 21.933594 19.65625 23.257812 20.78125 C 24.585938 21.90625 25.476562 23.46875 25.761719 25.1875 L 26.0625 26.992188 C 26.230469 28.007812 25.945312 29.039062 25.28125 29.820312 Z M 34.8125 23.867188 C 34.335938 24.429688 33.636719 24.75 32.902344 24.75 L 27.148438 24.75 C 26.792969 22.898438 25.851562 21.203125 24.464844 19.925781 C 25.101562 17.558594 27.261719 15.878906 29.746094 15.878906 C 32.429688 15.878906 34.699219 17.800781 35.140625 20.449219 L 35.371094 21.835938 C 35.492188 22.5625 35.289062 23.300781 34.8125 23.867188 Z M 34.8125 23.867188 " fill-opacity="1" fill-rule="nonzero"/></g><g clip-path="url(#f9b293e48e)"><path fill="#ffffff" d="M 18.503906 16.164062 C 21.609375 16.164062 24.136719 13.636719 24.136719 10.53125 C 24.136719 7.425781 21.609375 4.898438 18.503906 4.898438 C 15.398438 4.898438 12.871094 7.425781 12.871094 10.53125 C 12.871094 13.636719 15.398438 16.164062 18.503906 16.164062 Z M 18.503906 6.339844 C 20.8125 6.339844 22.695312 8.222656 22.695312 10.53125 C 22.695312 12.84375 20.8125 14.722656 18.503906 14.722656 C 16.191406 14.722656 14.3125 12.84375 14.3125 10.53125 C 14.3125 8.222656 16.191406 6.339844 18.503906 6.339844 Z M 18.503906 6.339844 " fill-opacity="1" fill-rule="nonzero"/></g></svg>