<svg xmlns="http://www.w3.org/2000/svg" xmlns:xlink="http://www.w3.org/1999/xlink" width="50" zoomAndPan="magnify" viewBox="0 0 37.5 37.499999" height="50" preserveAspectRatio="xMidYMid meet" version="1.0"><defs><clipPath id="2a642cd316"><path d="M 9.917969 21.214844 L 21.152344 21.214844 L 21.152344 26.035156 L 9.917969 26.035156 Z M 9.917969 21.214844 " clip-rule="nonzero"/></clipPath><clipPath id="294f0924dd"><path d="M 11.929688 21.832031 C 20.84375 21.980469 21.191406 23.167969 20.980469 23.832031 C 20.84375 24.425781 19.726562 25.238281 19.171875 25.238281 C 18.613281 25.3125 17.847656 24.867188 17.570312 24.351562 C 17.289062 23.757812 17.429688 22.425781 17.777344 21.90625 C 18.054688 21.464844 18.890625 21.167969 19.449219 21.242188 C 19.9375 21.316406 20.632812 21.90625 20.84375 22.351562 C 21.121094 22.722656 21.191406 23.167969 21.050781 23.609375 C 20.910156 24.128906 20.5625 24.71875 19.9375 25.089844 C 18.824219 25.757812 15.898438 26.125 14.15625 25.980469 C 12.695312 25.832031 10.742188 25.386719 10.1875 24.644531 C 9.839844 24.128906 9.910156 23.3125 10.1875 22.871094 C 10.464844 22.351562 11.929688 21.832031 11.929688 21.832031 " clip-rule="nonzero"/></clipPath><clipPath id="3e23fc843c"><path d="M 15.730469 12.03125 L 24.621094 12.03125 L 24.621094 20.257812 L 15.730469 20.257812 Z M 15.730469 12.03125 " clip-rule="nonzero"/></clipPath><clipPath id="e7b2745783"><path d="M 21.316406 19.835938 C 15.691406 13.988281 16.0625 12.953125 16.503906 12.507812 C 16.800781 12.136719 17.246094 11.988281 17.6875 12.0625 C 18.207031 12.0625 19.019531 12.433594 19.316406 12.878906 C 19.6875 13.324219 19.761719 14.210938 19.613281 14.730469 C 19.390625 15.246094 18.726562 15.839844 18.207031 15.988281 C 17.6875 16.0625 16.800781 15.914062 16.429688 15.542969 C 15.988281 15.171875 15.765625 14.285156 15.765625 13.765625 C 15.765625 13.324219 15.988281 12.878906 16.355469 12.65625 C 16.726562 12.285156 17.46875 11.988281 18.132812 12.0625 C 19.09375 12.210938 20.5 13.542969 21.539062 14.582031 C 22.648438 15.617188 24.5 17.320312 24.574219 18.355469 C 24.574219 19.019531 23.980469 19.984375 23.460938 20.207031 C 22.945312 20.425781 21.316406 19.835938 21.316406 19.835938 " clip-rule="nonzero"/></clipPath><clipPath id="b713706643"><path d="M 0 2.777344 L 37 2.777344 L 37 33.121094 L 0 33.121094 Z M 0 2.777344 " clip-rule="nonzero"/></clipPath></defs><g clip-path="url(#2a642cd316)"><g clip-path="url(#294f0924dd)"><path fill="#c60006" d="M 7.402344 18.28125 L 23.917969 18.28125 L 23.917969 29.011719 L 7.402344 29.011719 Z M 7.402344 18.28125 " fill-opacity="1" fill-rule="nonzero"/></g></g><g clip-path="url(#3e23fc843c)"><g clip-path="url(#e7b2745783)"><path fill="#c60006" d="M 12.804688 9.105469 L 27.546875 9.105469 L 27.546875 23.238281 L 12.804688 23.238281 Z M 12.804688 9.105469 " fill-opacity="1" fill-rule="nonzero"/></g></g><g clip-path="url(#b713706643)"><path fill="#ffffff" d="M 35.140625 25.125 C 34.925781 25.65625 34.613281 26.222656 34.230469 26.789062 L 33.089844 25.648438 C 33.054688 25.613281 33.015625 25.578125 32.976562 25.546875 C 32.226562 24.941406 30.972656 25.167969 30.0625 26.082031 C 29.867188 26.277344 29.695312 26.496094 29.5625 26.726562 C 29.535156 26.769531 29.507812 26.816406 29.484375 26.859375 C 29.078125 27.636719 29.09375 28.449219 29.523438 28.984375 C 29.539062 29.007812 29.554688 29.027344 29.570312 29.042969 C 29.589844 29.066406 29.609375 29.085938 29.628906 29.105469 L 30.769531 30.246094 C 30.394531 30.503906 30.019531 30.722656 29.652344 30.910156 C 28.550781 31.464844 27.574219 31.65625 26.972656 31.4375 C 26.84375 31.390625 26.730469 31.320312 26.644531 31.230469 C 26.550781 31.136719 26.480469 31.023438 26.433594 30.886719 C 26.226562 30.308594 26.402344 29.378906 26.90625 28.335938 C 27.417969 27.285156 28.207031 26.207031 29.199219 25.214844 C 29.585938 24.828125 29.992188 24.46875 30.40625 24.140625 C 31.578125 23.21875 32.816406 22.589844 33.800781 22.414062 C 34.226562 22.339844 34.59375 22.351562 34.871094 22.449219 C 35.007812 22.496094 35.121094 22.566406 35.214844 22.660156 C 35.628906 23.078125 35.601562 23.996094 35.140625 25.125 Z M 34.453125 29.113281 C 34.394531 29.402344 34.214844 29.714844 33.953125 29.972656 C 33.695312 30.230469 33.382812 30.410156 33.097656 30.46875 C 32.902344 30.507812 32.738281 30.484375 32.65625 30.40625 C 32.480469 30.226562 32.5625 29.636719 33.089844 29.109375 C 33.457031 28.742188 33.851562 28.589844 34.121094 28.589844 C 34.238281 28.589844 34.332031 28.621094 34.386719 28.675781 C 34.46875 28.753906 34.492188 28.917969 34.453125 29.113281 Z M 30.496094 28.242188 C 30.492188 28.238281 30.488281 28.234375 30.484375 28.230469 C 30.484375 28.230469 30.480469 28.226562 30.480469 28.226562 C 30.382812 28.105469 30.371094 27.808594 30.570312 27.429688 C 30.582031 27.402344 30.59375 27.378906 30.613281 27.351562 C 30.695312 27.207031 30.804688 27.070312 30.929688 26.945312 C 31.4375 26.4375 32.015625 26.34375 32.207031 26.5 C 32.210938 26.5 32.210938 26.5 32.214844 26.503906 C 32.21875 26.507812 32.222656 26.507812 32.226562 26.511719 L 33.257812 27.546875 C 32.898438 27.691406 32.542969 27.925781 32.226562 28.242188 C 31.90625 28.558594 31.675781 28.914062 31.53125 29.277344 Z M 24.507812 30.824219 C 23.519531 31 22.730469 30.855469 22.28125 30.40625 L 22.277344 30.402344 C 21.65625 29.78125 21.621094 28.542969 22.179688 27.007812 C 22.804688 25.292969 24.066406 23.425781 25.738281 21.757812 C 27.410156 20.085938 29.273438 18.820312 30.988281 18.199219 C 31.714844 17.933594 32.375 17.804688 32.933594 17.804688 C 33.558594 17.804688 34.058594 17.96875 34.386719 18.292969 L 34.386719 18.296875 C 34.847656 18.757812 34.988281 19.53125 34.808594 20.527344 L 34.347656 20.066406 C 33.59375 19.308594 32.328125 19.207031 30.792969 19.777344 C 29.414062 20.289062 27.925781 21.300781 26.605469 22.621094 C 25.28125 23.941406 24.273438 25.429688 23.761719 26.808594 C 23.191406 28.347656 23.292969 29.609375 24.050781 30.367188 Z M 20.453125 25.277344 C 21.074219 23.5625 22.339844 21.699219 24.011719 20.027344 C 25.679688 18.355469 27.542969 17.09375 29.257812 16.46875 C 30.796875 15.910156 32.035156 15.945312 32.65625 16.566406 L 32.675781 16.585938 C 32.039062 16.621094 31.328125 16.773438 30.570312 17.050781 C 28.691406 17.734375 26.667969 19.097656 24.875 20.890625 C 23.078125 22.6875 21.714844 24.710938 21.03125 26.589844 C 20.757812 27.347656 20.601562 28.054688 20.570312 28.695312 L 20.550781 28.675781 C 19.929688 28.054688 19.894531 26.816406 20.453125 25.277344 Z M 11.070312 22.296875 L 20.597656 22.296875 C 20.070312 23.121094 19.648438 23.945312 19.347656 24.746094 L 11.070312 24.746094 Z M 9.847656 30.859375 C 9.847656 31.535156 9.296875 32.082031 8.625 32.082031 C 7.949219 32.082031 7.398438 31.535156 7.398438 30.859375 L 7.398438 16.183594 C 7.398438 15.507812 7.949219 14.960938 8.625 14.960938 C 9.296875 14.960938 9.847656 15.507812 9.847656 16.183594 Z M 4.953125 27.800781 C 4.28125 27.800781 3.730469 27.253906 3.730469 26.578125 L 3.730469 20.464844 C 3.730469 19.789062 4.28125 19.242188 4.953125 19.242188 C 5.628906 19.242188 6.175781 19.789062 6.175781 20.464844 L 6.175781 26.578125 C 6.175781 27.253906 5.628906 27.800781 4.953125 27.800781 Z M 8.476562 10.804688 C 8.929688 9.585938 9.839844 8.253906 11.039062 7.054688 C 12.238281 5.855469 13.566406 4.945312 14.785156 4.492188 C 15.683594 4.160156 16.441406 4.117188 16.878906 4.367188 C 15.210938 5.113281 13.46875 6.351562 11.902344 7.917969 C 10.339844 9.480469 9.09375 11.238281 8.351562 12.898438 C 8.101562 12.460938 8.140625 11.703125 8.476562 10.804688 Z M 9.308594 7.054688 C 9.226562 6.976562 9.203125 6.8125 9.242188 6.617188 C 9.300781 6.328125 9.480469 6.015625 9.738281 5.757812 C 10 5.5 10.3125 5.316406 10.597656 5.261719 C 10.792969 5.222656 10.957031 5.246094 11.039062 5.324219 L 11.074219 5.359375 C 10.765625 5.621094 10.464844 5.898438 10.171875 6.191406 C 9.878906 6.480469 9.601562 6.785156 9.34375 7.089844 Z M 21.414062 5.324219 L 21.433594 5.34375 C 20.792969 5.378906 20.085938 5.53125 19.328125 5.808594 C 17.449219 6.492188 15.425781 7.855469 13.632812 9.648438 C 12.15625 11.125 10.972656 12.753906 10.21875 14.332031 C 9.949219 14.101562 9.632812 13.925781 9.285156 13.828125 C 9.925781 12.1875 11.164062 10.386719 12.765625 8.785156 C 14.4375 7.113281 16.300781 5.851562 18.015625 5.226562 C 19.554688 4.667969 20.792969 4.703125 21.414062 5.324219 Z M 21.300781 13.859375 L 19.253906 11.808594 C 18.878906 11.4375 18.316406 11.289062 17.710938 11.414062 C 17.183594 11.515625 16.65625 11.8125 16.226562 12.242188 C 15.796875 12.675781 15.5 13.199219 15.394531 13.726562 C 15.273438 14.332031 15.417969 14.894531 15.792969 15.269531 L 17.84375 17.320312 C 15.039062 19.460938 12.207031 20.261719 11.070312 19.191406 L 11.070312 16.183594 C 11.070312 15.984375 11.046875 15.789062 11 15.605469 C 11.640625 13.933594 12.875 12.136719 14.496094 10.515625 C 16.167969 8.84375 18.03125 7.578125 19.746094 6.957031 C 21.285156 6.394531 22.523438 6.433594 23.144531 7.054688 C 24.261719 8.171875 23.464844 11.03125 21.300781 13.859375 Z M 22.308594 20.054688 L 16.660156 14.40625 C 16.578125 14.324219 16.554688 14.160156 16.59375 13.964844 C 16.652344 13.679688 16.832031 13.367188 17.089844 13.109375 C 17.347656 12.847656 17.664062 12.667969 17.949219 12.613281 C 18.144531 12.574219 18.308594 12.597656 18.386719 12.675781 L 24.035156 18.324219 C 23.734375 18.589844 23.4375 18.871094 23.144531 19.160156 C 22.855469 19.453125 22.574219 19.75 22.308594 20.054688 Z M 11.070312 20.617188 C 11.488281 20.789062 11.964844 20.871094 12.488281 20.871094 C 14.230469 20.871094 16.476562 19.9375 18.714844 18.191406 L 21.519531 20.996094 C 21.5 21.023438 21.480469 21.050781 21.460938 21.074219 L 11.070312 21.074219 Z M 26.96875 16.183594 C 26.96875 15.855469 27.097656 15.550781 27.328125 15.316406 C 27.558594 15.085938 27.867188 14.960938 28.191406 14.960938 C 28.496094 14.960938 28.78125 15.070312 29 15.265625 C 28.949219 15.28125 28.894531 15.300781 28.839844 15.320312 C 28.226562 15.542969 27.601562 15.839844 26.96875 16.199219 Z M 25.917969 27.582031 C 25.734375 27.933594 25.574219 28.296875 25.441406 28.675781 C 25.328125 29 25.167969 29.40625 25.167969 29.753906 L 24.914062 29.5 C 24.527344 29.113281 24.523438 28.265625 24.90625 27.234375 C 25.359375 26.015625 26.269531 24.683594 27.46875 23.484375 C 28.667969 22.285156 30 21.378906 31.21875 20.925781 C 32.25 20.542969 33.097656 20.542969 33.484375 20.929688 L 33.738281 21.1875 C 33.691406 21.195312 33.640625 21.199219 33.589844 21.210938 C 32.394531 21.421875 30.996094 22.121094 29.648438 23.179688 C 29.199219 23.535156 28.753906 23.929688 28.332031 24.351562 C 27.316406 25.367188 26.484375 26.480469 25.917969 27.582031 Z M 1.285156 24.746094 L 1.285156 22.296875 L 2.507812 22.296875 L 2.507812 24.746094 Z M 36.078125 21.796875 L 35.824219 21.539062 C 36.335938 19.773438 36.140625 18.320312 35.253906 17.433594 C 35.25 17.429688 35.246094 17.429688 35.246094 17.425781 L 33.523438 15.703125 C 32.78125 14.960938 31.664062 14.703125 30.292969 14.929688 C 29.859375 14.199219 29.070312 13.738281 28.191406 13.738281 C 27.539062 13.738281 26.925781 13.992188 26.460938 14.453125 C 26 14.917969 25.746094 15.53125 25.746094 16.183594 L 25.746094 16.972656 C 25.488281 17.152344 25.234375 17.339844 24.980469 17.539062 L 22.175781 14.730469 C 24.867188 11.273438 25.628906 7.808594 24.011719 6.1875 L 22.28125 4.460938 C 21.386719 3.566406 19.945312 3.371094 18.171875 3.890625 L 17.917969 3.632812 C 17.160156 2.878906 15.898438 2.777344 14.359375 3.347656 C 13.605469 3.625 12.820312 4.054688 12.046875 4.601562 L 11.902344 4.460938 C 11.527344 4.085938 10.964844 3.941406 10.359375 4.0625 C 9.832031 4.167969 9.304688 4.460938 8.875 4.890625 C 8.445312 5.324219 8.148438 5.847656 8.042969 6.375 C 7.921875 6.980469 8.066406 7.542969 8.441406 7.917969 L 8.585938 8.0625 C 8.039062 8.835938 7.609375 9.625 7.328125 10.378906 C 6.757812 11.914062 6.859375 13.175781 7.617188 13.933594 L 7.632812 13.949219 C 6.777344 14.328125 6.175781 15.1875 6.175781 16.183594 L 6.175781 18.347656 C 5.816406 18.136719 5.398438 18.015625 4.953125 18.015625 C 3.605469 18.015625 2.507812 19.113281 2.507812 20.464844 L 2.507812 21.074219 L 0.671875 21.074219 C 0.335938 21.074219 0.0625 21.347656 0.0625 21.6875 L 0.0625 25.355469 C 0.0625 25.695312 0.335938 25.96875 0.671875 25.96875 L 2.507812 25.96875 L 2.507812 26.578125 C 2.507812 27.925781 3.605469 29.023438 4.953125 29.023438 C 5.398438 29.023438 5.816406 28.90625 6.175781 28.695312 L 6.175781 30.859375 C 6.175781 32.207031 7.273438 33.304688 8.625 33.304688 C 9.972656 33.304688 11.070312 32.207031 11.070312 30.859375 L 11.070312 25.96875 L 18.976562 25.96875 C 18.644531 27.496094 18.886719 28.738281 19.683594 29.539062 L 21.40625 31.261719 C 21.410156 31.265625 21.414062 31.269531 21.414062 31.269531 C 21.980469 31.835938 22.773438 32.121094 23.730469 32.121094 C 24.277344 32.121094 24.878906 32.027344 25.523438 31.839844 L 25.777344 32.09375 C 25.992188 32.308594 26.253906 32.476562 26.554688 32.585938 C 26.847656 32.691406 27.175781 32.746094 27.53125 32.746094 C 28.3125 32.746094 29.226562 32.492188 30.203125 32.003906 C 30.683594 31.761719 31.167969 31.46875 31.648438 31.125 L 31.792969 31.269531 C 32.082031 31.558594 32.480469 31.710938 32.925781 31.710938 C 33.058594 31.710938 33.195312 31.695312 33.335938 31.667969 C 33.863281 31.5625 34.390625 31.269531 34.820312 30.835938 C 35.25 30.40625 35.546875 29.878906 35.652344 29.355469 C 35.773438 28.746094 35.628906 28.183594 35.253906 27.808594 L 35.109375 27.664062 C 35.601562 26.96875 36 26.257812 36.273438 25.585938 C 36.949219 23.941406 36.878906 22.59375 36.078125 21.796875 " fill-opacity="1" fill-rule="nonzero"/></g></svg>